<svg width="25" height="25" viewBox="0 0 25 25" fill="none" xmlns="http://www.w3.org/2000/svg">
<path d="M25 12.5C25 19.4035 19.4035 25 12.5 25C5.59644 25 0 19.4035 0 12.5C0 5.59644 5.59644 0 12.5 0C19.4035 0 25 5.59644 25 12.5Z" fill="#DFBB00"/>
<path d="M10.4365 8.39774L10.6496 8.04502C11.4729 6.68168 11.8846 6 12.5 6C13.1154 6 13.5271 6.68167 14.3504 8.04502L14.5635 8.39775C14.7974 8.78516 14.9144 8.97886 15.0967 9.10667C15.2791 9.23449 15.5064 9.28193 15.9607 9.37682L16.3742 9.46321C17.9731 9.79713 18.7725 9.96409 18.9627 10.5287C19.1529 11.0932 18.6079 11.6814 17.518 12.858L17.2359 13.1623C16.9262 13.4966 16.7714 13.6638 16.7017 13.8707C16.632 14.0774 16.6554 14.3005 16.7022 14.7465L16.7449 15.1526C16.9097 16.7223 16.992 17.5073 16.4941 17.8561C15.9962 18.2051 15.2478 17.8869 13.7509 17.2507L13.3636 17.0861C12.9381 16.9053 12.7254 16.8149 12.5 16.8149C12.2746 16.8149 12.0619 16.9053 11.6364 17.0861L11.2491 17.2507C9.75223 17.8869 9.00377 18.2051 8.50584 17.8561C8.00793 17.5073 8.09032 16.7223 8.25511 15.1526L8.29774 14.7465C8.34456 14.3005 8.36797 14.0774 8.29831 13.8707C8.22864 13.6638 8.07377 13.4966 7.76405 13.1623L7.48206 12.858C6.39211 11.6814 5.84713 11.0932 6.03732 10.5287C6.22751 9.96409 7.02692 9.79712 8.6257 9.46321L9.03932 9.37682C9.49366 9.28193 9.72082 9.23449 9.90325 9.10667C10.0856 8.97886 10.2026 8.78516 10.4365 8.39774Z" fill="white"/>
</svg>
