<svg width="166" height="166" viewBox="0 0 166 166" fill="none" xmlns="http://www.w3.org/2000/svg">
<rect width="166" height="166" rx="83" fill="url(#paint0_linear_347_373)"/>
<path d="M132 126.425H130.806V62.8621L110.782 54.6782V126.368L110.191 126.437H109.762V31L94.0626 38.6667V75.0575L73.2736 68.1379L71.8475 68.3103L47.9627 83.5057L47.1975 84.908V115.115L37.0175 121.402L36.1942 122.816V126.437H35V133.954H36.1942V134H109.75V133.954H110.77V134H130.806V133.954H132V126.425ZM98.5265 46.9885H105.367V53.7701H98.5265V46.9885ZM98.5265 62.2874H105.367V69.069H98.5265V62.2874ZM98.5265 77.5747H105.367V84.3563H98.5265V77.5747ZM98.5265 92.8621H105.367V99.6437H98.5265V92.8621ZM98.5265 108.149H105.367V114.931H98.5265V108.149ZM105.356 123.241V126.425H98.5149V123.241H105.356ZM77.2853 79.7701L92.8568 84.8391L92.8452 87.9655L77.2389 82.8391L77.2853 79.7701ZM77.2853 89.2069L92.8336 94.2759L92.822 97.3908L77.2389 92.2874L77.2853 89.2069ZM77.2853 98.6552L92.7988 103.701L92.7872 106.828L77.2389 101.713L77.2853 98.6552ZM77.2853 108.598L92.7756 113.632L92.764 116.77L77.2505 111.667L77.2853 108.598ZM77.2853 118.54L92.7293 123.563L92.7177 126.425H91.8945L77.2389 121.609L77.2853 118.54ZM67.9401 121.529L59.4529 126.425H56.3456L53.818 126.184L68.0561 117.966L67.9401 121.529ZM52.5773 90.4713L67.8474 80.954V84.5057L52.5889 94.023V90.4713H52.5773ZM52.5773 103.011L67.8474 93.5057V97.0575L52.5889 106.575V103.011H52.5773ZM52.5773 115.138L67.8474 105.632V109.195L52.5773 118.701V115.138Z" fill="white"/>
<defs>
<linearGradient id="paint0_linear_347_373" x1="183" y1="131" x2="83" y2="166" gradientUnits="userSpaceOnUse">
<stop stop-color="#4780FF"/>
<stop offset="1" stop-color="#FFA6A6"/>
</linearGradient>
</defs>
</svg>
