<?xml version="1.0" encoding="utf-8"?>
<!-- Generator: Adobe Illustrator 16.0.0, SVG Export Plug-In . SVG Version: 6.00 Build 0)  -->
<!DOCTYPE svg PUBLIC "-//W3C//DTD SVG 1.1//EN" "http://www.w3.org/Graphics/SVG/1.1/DTD/svg11.dtd">
<svg version="1.1" xmlns="http://www.w3.org/2000/svg" xmlns:xlink="http://www.w3.org/1999/xlink" x="0px" y="0px"
	 width="541.333px" height="446.667px" viewBox="0 0 541.333 446.667" enable-background="new 0 0 541.333 446.667"
	 xml:space="preserve">
<g id="Background_Complete">
	<g>
		<rect x="455.843" y="404.049" fill="#EBEBEB" width="37.803" height="0.285"/>
		<rect x="348.27" y="407.146" fill="#EBEBEB" width="9.922" height="0.285"/>
		<rect x="432.795" y="393.449" fill="#EBEBEB" width="21.905" height="0.285"/>
		<rect x="40.031" y="395.368" fill="#EBEBEB" width="49.298" height="0.285"/>
		<rect x="99.491" y="395.368" fill="#EBEBEB" width="7.229" height="0.285"/>
		<rect x="130.211" y="400.187" fill="#EBEBEB" width="106.916" height="0.285"/>
		<path fill="#EBEBEB" d="M250.67,334.775H30.28c-3.593,0-6.516-2.922-6.516-6.514V18.467c0-3.592,2.923-6.514,6.516-6.514h220.39
			c3.591,0,6.514,2.922,6.514,6.514v309.795C257.184,331.854,254.261,334.775,250.67,334.775z M30.28,12.238
			c-3.436,0-6.23,2.794-6.23,6.229v309.795c0,3.435,2.794,6.229,6.23,6.229h220.39c3.434,0,6.228-2.794,6.228-6.229V18.467
			c0-3.435-2.794-6.229-6.228-6.229H30.28z"/>
		<path fill="#EBEBEB" d="M497.537,334.775h-220.39c-3.591,0-6.513-2.922-6.513-6.514V18.467c0-3.592,2.922-6.514,6.513-6.514
			h220.39c3.593,0,6.515,2.922,6.515,6.514v309.795C504.052,331.854,501.129,334.775,497.537,334.775z M277.146,12.238
			c-3.434,0-6.228,2.794-6.228,6.229v309.795c0,3.435,2.794,6.229,6.228,6.229h220.39c3.435,0,6.229-2.794,6.229-6.229V18.467
			c0-3.435-2.794-6.229-6.229-6.229H277.146z"/>
		<rect x="-19.842" y="385.678" fill="#EBEBEB" width="570.667" height="0.285"/>
	</g>
	<g>
		<rect x="260.527" y="258.388" fill="#E6E6E6" width="211.293" height="113.713"/>
		<rect x="264.187" y="376.822" fill="#E6E6E6" width="13.28" height="10.033"/>
		<rect x="474.671" y="249.929" fill="#E6E6E6" width="13.28" height="136.927"/>
		<path fill="#F0F0F0" d="M471.289,249.929h-3.541H264.187h-3.541h-3.541v136.927h7.082v-7.672h203.561v7.672h7.082V249.929H471.289
			z M467.748,309.882h-98.24v-47.559h98.24V309.882z M264.187,262.323h98.239v104.465h-98.239V262.323z M369.508,366.788v-49.825
			h98.24v49.825H369.508z"/>
		<rect x="270.826" y="267.438" fill="#F5F5F5" width="91.6" height="99.35"/>
		<circle fill="#FAFAFA" cx="354.022" cy="314.138" r="4.255"/>
		<path fill="#E0E0E0" d="M354.021,318.393c-1.716,0-3.186-1.022-3.858-2.486c-0.248,0.542-0.396,1.138-0.396,1.771
			c0,2.351,1.905,4.256,4.255,4.256c2.351,0,4.256-1.905,4.256-4.256c0-0.634-0.147-1.229-0.396-1.771
			C357.208,317.37,355.738,318.393,354.021,318.393z"/>
		<polygon fill="#FAFAFA" points="306.351,366.788 328.204,366.788 338.646,267.438 316.794,267.438 		"/>
		<polygon fill="#FAFAFA" points="333.801,366.788 338.151,366.788 348.593,267.438 344.243,267.438 		"/>
		<rect x="382.992" y="267.34" fill="#FAFAFA" width="8.656" height="42.494"/>
		<rect x="418.883" y="267.34" fill="#F5F5F5" width="8.656" height="42.494"/>
		<rect x="391.648" y="270.325" fill="#F5F5F5" width="8.657" height="39.509"/>
		<rect x="410.227" y="270.325" fill="#FAFAFA" width="8.656" height="39.509"/>
		<rect x="404.632" y="267.34" fill="#EBEBEB" width="5.595" height="42.494"/>
		<rect x="400.305" y="270.325" fill="#FAFAFA" width="4.327" height="39.509"/>
		<rect x="427.539" y="267.34" fill="#EBEBEB" width="8.657" height="42.494"/>
		<rect x="436.195" y="270.325" fill="#E6E6E6" width="8.656" height="39.509"/>
		<rect x="454.773" y="270.325" fill="#E6E6E6" width="8.657" height="39.509"/>
		<rect x="449.18" y="267.34" fill="#FAFAFA" width="5.594" height="42.494"/>
		<rect x="444.852" y="270.325" fill="#EBEBEB" width="4.328" height="39.509"/>
		<rect x="463.431" y="268.346" fill="#EBEBEB" width="4.328" height="41.488"/>
		<rect x="459.103" y="324.294" fill="#EBEBEB" width="8.656" height="42.494"/>
		<rect x="423.211" y="324.294" fill="#FAFAFA" width="8.656" height="42.494"/>
		<rect x="450.446" y="327.281" fill="#FAFAFA" width="8.657" height="39.507"/>
		<rect x="431.867" y="327.281" fill="#EBEBEB" width="8.657" height="39.507"/>
		<rect x="440.524" y="324.294" fill="#FAFAFA" width="5.594" height="42.494"/>
		<rect x="446.118" y="327.281" fill="#F5F5F5" width="4.328" height="39.507"/>
		<rect x="414.555" y="324.294" fill="#EBEBEB" width="8.656" height="42.494"/>
		<rect x="405.898" y="327.281" fill="#F5F5F5" width="8.657" height="39.507"/>
		<rect x="387.32" y="327.281" fill="#E6E6E6" width="8.656" height="39.507"/>
		<rect x="395.977" y="324.294" fill="#FAFAFA" width="5.593" height="42.494"/>
		<rect x="377.398" y="324.294" fill="#FAFAFA" width="5.594" height="42.494"/>
		<rect x="401.57" y="327.281" fill="#EBEBEB" width="4.329" height="39.507"/>
		<rect x="382.992" y="325.3" fill="#EBEBEB" width="4.328" height="41.488"/>
	</g>
	<g>
		<g>
			<path fill="#F5F5F5" d="M172.446,109.739c-0.277-23.639-13.49-45.667-34.787-56.283c-21.219-10.577-47.235-8.164-66.12,6.166
				c-15.827,12.009-24.759,30.733-24.906,50.5c-0.043,5.817,0,11.636,0,17.454c0,29.457,0,58.914,0,88.371
				c0,35.493,0,70.984,0,106.478c0,13.089,0,26.177,0,39.265c0,6.434-0.761,13.396,0,19.797c0.034,0.287,0,0.596,0,0.885
				c0,2.022,3.143,2.025,3.143,0c0-15.059,0-30.117,0-45.176c0-32.645,0-65.29,0-97.936c0-31.313,0-62.626,0-93.94
				c0-9.451,0-18.903,0-28.354c0-8.768,0.171-17.294,2.943-25.794c7.927-24.307,31.268-41.194,56.819-41.194
				c25.553,0,48.891,16.881,56.82,41.194c1.964,6.021,2.869,12.247,2.944,18.57C169.326,111.76,172.469,111.765,172.446,109.739
				L172.446,109.739z"/>
		</g>
		<g>
			<path fill="#F0F0F0" d="M203.039,118.056c0-20.685-16.769-37.454-37.453-37.454c-20.686,0-37.454,16.769-37.454,37.454H203.039z"
				/>
			<path fill="#F5F5F5" d="M169.602,80.819c18.797,2.005,33.438,17.909,33.438,37.237h-66.875
				C136.164,98.728,150.806,82.824,169.602,80.819z"/>
		</g>
		<rect x="39.191" y="274.262" fill="#F5F5F5" width="18.264" height="111.478"/>
		<path fill="#F5F5F5" d="M74.746,386.436H21.663v-0.313c0-3.697,2.997-6.693,6.693-6.693h39.695c3.697,0,6.694,2.996,6.694,6.693
			V386.436z"/>
	</g>
	<g>
		<path fill="#F5F5F5" d="M455.821,220.987l1.436-11.126h-12.604l1.436,11.126c-5.832,2.018-10.026,7.546-10.026,14.063
			c0,4.627,2.11,10.566,5.42,14.878h18.945c3.311-4.312,5.42-10.251,5.42-14.878C465.848,228.532,461.653,223.005,455.821,220.987z"
			/>
		<path fill="#F0F0F0" d="M463.982,175.81c0,0-13.911,21.88-13.415,48.878C450.567,224.688,458.07,192.096,463.982,175.81z"/>
		<path fill="#F0F0F0" d="M438.303,164.375c0,0,17.441,25.584,13.674,57.732C451.977,222.106,445.801,181.495,438.303,164.375z"/>
		<path fill="#F5F5F5" d="M451.713,229.894c0,0,4.534-33.234-15.885-43.263C435.828,186.631,446.657,194.977,451.713,229.894z"/>
		<g>
			<path fill="#F5F5F5" d="M453.809,239.498c-0.055-0.388-5.282-39.134,2.58-72.486l1.111,0.262
				c-7.813,33.14-2.615,71.683-2.562,72.068L453.809,239.498z"/>
		</g>
		<path fill="#EBEBEB" d="M453.59,167.61l-0.372,0.081c-0.575,0.125-0.918,0.717-0.741,1.277l0.519,1.644
			c0.229,0.721,1.142,0.938,1.669,0.396l0.595-0.613c0.505-0.519,1.375-0.347,1.644,0.325l0.905,2.261
			c0.233,0.582,0.938,0.808,1.466,0.469l1.873-1.199c0.541-0.347,0.619-1.105,0.16-1.555l-0.313-0.307
			c-0.62-0.607-0.224-1.661,0.642-1.711l1.656-0.094c0.593-0.034,1.026-0.575,0.929-1.16l-0.232-1.401
			c-0.111-0.671-0.846-1.037-1.449-0.721l-0.114,0.06c-0.822,0.431-1.736-0.396-1.391-1.257l0.508-1.264
			c0.248-0.617-0.165-1.299-0.827-1.366l-1.778-0.179c-0.588-0.059-1.098,0.403-1.098,0.994l0,0c0,1.01-1.328,1.382-1.853,0.519
			l-0.248-0.407c-0.336-0.552-1.101-0.645-1.559-0.188l-1.274,1.271c-0.41,0.409-0.388,1.081,0.049,1.461l1.078,0.937
			C454.654,166.42,454.393,167.436,453.59,167.61z"/>
	</g>
</g>
<g id="Background_Simple" display="none">
	<g display="inline">
		<path fill="#407BFF" d="M70.073,273.915c3.373,3.963,7.151,7.722,11.344,11.229c47.963,40.116,115.308,10.517,169.451,2.192
			c34.229-5.263,70.786-5.429,100.381-23.413c38.358-23.311,50.596-70.629,51.522-112.898c0.47-21.421-1.801-43.609-12.235-62.323
			C367.79,47.906,312.395,32.93,271.19,53.138c-3.601,1.766-7.088,3.762-10.445,5.955L201.12,98.038
			c-9.085,5.934-19.14,10.229-29.708,12.692c0,0-52.38,12.204-52.396,12.207C50.01,139.015,26.882,223.179,70.073,273.915z"/>
		<path opacity="0.9" fill="#FFFFFF" d="M70.073,273.915c3.373,3.963,7.151,7.722,11.344,11.229
			c47.963,40.116,115.308,10.517,169.451,2.192c34.229-5.263,70.786-5.429,100.381-23.413
			c38.358-23.311,50.596-70.629,51.522-112.898c0.47-21.421-1.801-43.609-12.235-62.323C367.79,47.906,312.395,32.93,271.19,53.138
			c-3.601,1.766-7.088,3.762-10.445,5.955L201.12,98.038c-9.085,5.934-19.14,10.229-29.708,12.692c0,0-52.38,12.204-52.396,12.207
			C50.01,139.015,26.882,223.179,70.073,273.915z"/>
	</g>
</g>
<g id="Shadow">
	<ellipse id="_x3C_Path_x3E__1_" fill="#F5F5F5" cx="259.988" cy="419.909" rx="221.292" ry="12.923"/>
</g>
<g id="Chair">
	<g>
		<g>
			<rect x="226.716" y="295.191" fill="#407BFF" width="11.502" height="53.415"/>
			<rect x="226.716" y="295.191" opacity="0.3" fill="#FFFFFF" width="11.502" height="53.415"/>
		</g>
		<g>
			<rect x="240.688" y="234.722" fill="#407BFF" width="9.202" height="53.416"/>
			<rect x="240.688" y="234.722" opacity="0.3" fill="#FFFFFF" width="9.202" height="53.416"/>
		</g>
		<g>
			<g>
				<path fill="#407BFF" d="M268.865,264.867c-15.681,1.337-31.471,1.337-47.151,0c-11-0.938-19.857-11.33-19.857-22.326
					c0-8.666,0-12.999,0-21.664c0-10.996,8.857-18.433,19.857-17.494c15.68,1.336,31.471,1.336,47.151,0
					c11-0.938,19.857,6.498,19.857,17.494c0,8.665,0,12.998,0,21.664C288.723,253.537,279.865,263.93,268.865,264.867z"/>
			</g>
			<g opacity="0.4">
				<path fill="#FFFFFF" d="M268.865,264.867c-15.681,1.337-31.471,1.337-47.151,0c-11-0.938-19.857-11.33-19.857-22.326
					c0-8.666,0-12.999,0-21.664c0-10.996,8.857-18.433,19.857-17.494c15.68,1.336,31.471,1.336,47.151,0
					c11-0.938,19.857,6.498,19.857,17.494c0,8.665,0,12.998,0,21.664C288.723,253.537,279.865,263.93,268.865,264.867z"/>
			</g>
		</g>
		<path fill="#407BFF" d="M279.884,303.425h-94.833c-2.429,0-4.396-1.968-4.396-4.396v-2.104c0-5.505,4.462-9.966,9.966-9.966
			h83.695c5.503,0,9.965,4.461,9.965,9.966v2.104C284.28,301.457,282.312,303.425,279.884,303.425z"/>
		<path opacity="0.4" fill="#FFFFFF" d="M279.884,303.425h-94.833c-2.429,0-4.396-1.968-4.396-4.396v-2.104
			c0-5.505,4.462-9.966,9.966-9.966h83.695c5.503,0,9.965,4.461,9.965,9.966v2.104C284.28,301.457,282.312,303.425,279.884,303.425z
			"/>
		<g>
			<path fill="#407BFF" d="M283.319,404.866l-43.717-8.832c0.036-0.142,0.062-0.288,0.062-0.441V345.72
				c0-0.978-0.793-1.771-1.771-1.771h-10.853c-0.978,0-1.77,0.793-1.77,1.771v49.873c0,0.153,0.025,0.3,0.062,0.441l-43.717,8.832
				c-0.56,0.114-0.962,0.604-0.962,1.176v1.986c0,0.733,0.654,1.296,1.379,1.186l47.857-7.252v5.807
				c0,0.783,0.635,1.419,1.419,1.419h2.315c0.784,0,1.418-0.636,1.418-1.419v-5.807l47.858,7.252
				c0.726,0.11,1.379-0.452,1.379-1.186v-1.986C284.28,405.471,283.878,404.98,283.319,404.866z"/>
			<path opacity="0.4" fill="#FFFFFF" d="M283.319,404.866l-43.717-8.832c0.036-0.142,0.062-0.288,0.062-0.441V345.72
				c0-0.978-0.793-1.771-1.771-1.771h-10.853c-0.978,0-1.77,0.793-1.77,1.771v49.873c0,0.153,0.025,0.3,0.062,0.441l-43.717,8.832
				c-0.56,0.114-0.962,0.604-0.962,1.176v1.986c0,0.733,0.654,1.296,1.379,1.186l47.857-7.252v5.807
				c0,0.783,0.635,1.419,1.419,1.419h2.315c0.784,0,1.418-0.636,1.418-1.419v-5.807l47.858,7.252
				c0.726,0.11,1.379-0.452,1.379-1.186v-1.986C284.28,405.471,283.878,404.98,283.319,404.866z"/>
		</g>
	</g>
</g>
<g id="Character">
	<g>
		<g>
			<path fill="#407BFF" d="M286.796,195.272c0,0-6.831,44.827-5.693,84.104c1.139,39.278,7.97,110.433,7.97,110.433h18.784
				c0,0-1.811-86.523-0.336-108.725c1.475-22.2,15.654-86.734,15.654-86.734L286.796,195.272z"/>
			<path opacity="0.6" d="M286.796,195.272c0,0-6.831,44.827-5.693,84.104c1.139,39.278,7.97,110.433,7.97,110.433h18.784
				c0,0-1.811-86.523-0.336-108.725c1.475-22.2,15.654-86.734,15.654-86.734L286.796,195.272z"/>
			<path opacity="0.4" d="M314.239,209.739l-3.257-1.417c0,0-7.732,42.436-3.148,69.147c1.426-13.955,6.089-38.452,9.906-57.252
				L314.239,209.739z"/>
			<polygon fill="#FFC3BD" points="302.185,391.896 302.552,403.429 294.635,403.607 293.682,391.267 			"/>
			<polygon opacity="0.1" points="294.158,397.437 302.361,397.437 302.185,391.896 297.068,391.518 293.701,391.518 			"/>
			<g>
				<path fill="#407BFF" d="M290.083,404.208c-1.136-0.038-2.303-0.287-2.663-0.788c-0.185-0.293-0.166-0.67,0.05-0.941
					c0.161-0.246,0.412-0.419,0.698-0.483c1.54-0.366,4.666,1.563,4.803,1.649c0.078,0.05,0.117,0.141,0.097,0.229
					c-0.02,0.088-0.091,0.155-0.181,0.172C291.96,404.182,291.021,404.236,290.083,404.208z M288.692,402.381
					c-0.14-0.008-0.28,0.006-0.416,0.039c-0.182,0.024-0.341,0.131-0.435,0.287c-0.17,0.265-0.118,0.396-0.06,0.472
					c0.403,0.609,2.708,0.704,4.416,0.552C291.124,403.063,289.935,402.606,288.692,402.381z"/>
				<path fill="#407BFF" d="M292.854,404.041c-0.031,0.008-0.063,0.004-0.09-0.011c-1.076-0.522-3.203-2.58-2.974-3.601
					c0.031-0.248,0.227-0.542,0.826-0.581c0.437-0.031,0.867,0.117,1.192,0.411c1.13,0.996,1.29,3.47,1.298,3.584
					c0.002,0.079-0.037,0.153-0.104,0.193C292.956,404.058,292.902,404.059,292.854,404.041z M290.747,400.264l-0.123-0.015
					c-0.391,0.019-0.422,0.174-0.44,0.229c-0.077,0.62,1.309,2.219,2.418,2.927c-0.072-1.039-0.463-2.031-1.116-2.843
					C291.284,400.376,291.021,400.27,290.747,400.264L290.747,400.264z"/>
				<path fill="#263238" d="M293.865,402.798l9.975,0.346c0.377,0.012,0.693,0.283,0.763,0.653l1.523,8.178
					c0.141,0.724-0.333,1.425-1.058,1.565c-0.093,0.018-0.187,0.026-0.282,0.024c-3.594-0.188-6.785-0.494-11.262-0.642
					c-5.283-0.183-3.964,0.497-10.178,0.371c-3.744-0.08-4.283-4.357-2.689-4.513c7.295-0.662,8.125-2.829,11.016-5.333
					C292.3,402.971,293.08,402.738,293.865,402.798z"/>
			</g>
			<polygon fill="#407BFF" points="286.837,388.672 287.975,394.363 309.037,394.363 309.037,388.672 			"/>
		</g>
		<g>
			<polygon fill="#FFC3BD" points="351.807,388.481 353.312,403.429 345.395,403.607 343.304,390.128 			"/>
			<g>
				<path fill="#407BFF" d="M340.844,404.208c-1.136-0.038-2.303-0.287-2.663-0.788c-0.185-0.293-0.165-0.67,0.049-0.941
					c0.161-0.246,0.412-0.419,0.699-0.483c1.541-0.366,4.666,1.563,4.803,1.649c0.078,0.05,0.117,0.141,0.097,0.229
					c-0.02,0.088-0.092,0.155-0.181,0.172C342.72,404.182,341.781,404.236,340.844,404.208z M339.452,402.381
					c-0.14-0.008-0.28,0.006-0.416,0.039c-0.182,0.024-0.342,0.131-0.435,0.287c-0.17,0.265-0.119,0.396-0.06,0.472
					c0.403,0.609,2.708,0.704,4.416,0.552C341.885,403.063,340.695,402.606,339.452,402.381z"/>
				<path fill="#407BFF" d="M343.615,404.041c-0.03,0.008-0.062,0.004-0.09-0.011c-1.075-0.522-3.203-2.58-2.973-3.601
					c0.03-0.248,0.228-0.542,0.825-0.581c0.437-0.031,0.868,0.117,1.192,0.411c1.131,0.996,1.29,3.47,1.299,3.584
					c0.002,0.079-0.038,0.153-0.104,0.193C343.716,404.058,343.663,404.059,343.615,404.041z M341.507,400.264l-0.123-0.015
					c-0.391,0.019-0.421,0.174-0.44,0.229c-0.077,0.62,1.31,2.219,2.418,2.927c-0.072-1.039-0.462-2.031-1.116-2.843
					C342.045,400.376,341.782,400.27,341.507,400.264L341.507,400.264z"/>
				<path fill="#263238" d="M344.626,402.798l9.975,0.346c0.376,0.012,0.693,0.283,0.763,0.653l1.523,8.178
					c0.14,0.724-0.333,1.425-1.058,1.565c-0.093,0.018-0.188,0.026-0.282,0.024c-3.594-0.188-6.785-0.494-11.262-0.642
					c-5.283-0.183-3.964,0.497-10.178,0.371c-3.744-0.08-4.282-4.357-2.688-4.513c7.295-0.662,8.125-2.829,11.016-5.333
					C343.061,402.971,343.841,402.738,344.626,402.798z"/>
			</g>
			<polygon opacity="0.1" points="344.27,396.352 352.52,395.562 352.043,390.829 343.539,391.645 			"/>
			<path fill="#407BFF" d="M309.68,194.076c0,0,0.808,56.06,9.455,98.003c8.647,41.944,19.328,97.729,19.328,97.729l17.781-2.276
				c0,0-5.865-61.479-11.471-108.156s-7.874-88.518-7.874-88.518L309.68,194.076z"/>
			<path opacity="0.6" d="M309.68,194.076c0,0,0.808,56.06,9.455,98.003c8.647,41.944,19.328,97.729,19.328,97.729l17.781-2.276
				c0,0-5.865-61.479-11.471-108.156s-7.874-88.518-7.874-88.518L309.68,194.076z"/>
			<polygon fill="#407BFF" points="336.512,388.822 338.243,394.363 359.188,392.146 358.588,386.485 			"/>
		</g>
		<g>
			<g>
				<path fill="#407BFF" d="M318.903,115.728c-5.642,0.121-10.692,0.771-15.22,1.783c-1.455,3.533-4.031,9.859-4.68,11.872
					c-0.917,2.846-0.363,9.89-1.928,10.209c-1.565,0.319-4.91-3.379-7.613-8.359c-1.433-2.638-3.479-4.53-5.09-5.733
					c-11.522,7.571-15.521,16.768-15.521,16.768c15.275,20.206,16.785,60.907,16.785,60.907c35.637,3.313,52.827-5.597,52.827-5.597
					c-7.017-29.191-12.496-65.113-14.288-77.439C323.795,117.541,321.528,115.67,318.903,115.728z"/>
			</g>
			<g opacity="0.7">
				<path fill="#FFFFFF" d="M318.903,115.728c-5.642,0.121-10.692,0.771-15.22,1.783c-1.455,3.533-4.031,9.859-4.68,11.872
					c-0.917,2.846-0.363,9.89-1.928,10.209c-1.565,0.319-4.91-3.379-7.613-8.359c-1.433-2.638-3.479-4.53-5.09-5.733
					c-11.522,7.571-15.521,16.768-15.521,16.768c15.275,20.206,16.785,60.907,16.785,60.907c35.637,3.313,52.827-5.597,52.827-5.597
					c-7.017-29.191-12.496-65.113-14.288-77.439C323.795,117.541,321.528,115.67,318.903,115.728z"/>
				<path opacity="0.1" d="M276.646,146.258c0,0,5.571,1.755,10.41,11.785c11.146,23.101-1.96,20.916-1.96,20.916
					S279.496,153.181,276.646,146.258z"/>
				<path opacity="0.1" d="M328.006,144.612c-1.044-6.246-1.929-11.847-2.63-16.425l-1.096-0.513l-4.401,1.186
					C319.879,128.86,322.976,137.509,328.006,144.612z"/>
			</g>
		</g>
		<g>
			<path fill="#FFC3BD" d="M343.204,119.539c0,0,25.132,4.604,29.306,8.399c4.175,3.795,15.182,21.258,18.975,26.755
				c3.792,5.498,4.829,19.489-2.139,18.946c-6.969-0.542-4.08-9.839-4.08-9.839s-2.51-3.605-2.319-8.539
				c0,0-8.918-8.917-17.267-18.405l-21.947-4.934L343.204,119.539z"/>
			<g>
				<path fill="#407BFF" d="M319.416,119.539c0,0,1.712-7.918,22.09-2.701c0,0,0.834,8.759,0.644,17.709
					c0,0-20.302,2.451-22.011-4.546C318.433,123.005,319.416,119.539,319.416,119.539z"/>
				<path opacity="0.7" fill="#FFFFFF" d="M319.416,119.539c0,0,1.712-7.918,22.09-2.701c0,0,0.834,8.759,0.644,17.709
					c0,0-20.302,2.451-22.011-4.546C318.433,123.005,319.416,119.539,319.416,119.539z"/>
				<path fill="#407BFF" d="M340.159,115.707c0,0,1.177,5.021,1.348,20.012h4.405c0,0,1.363-11.846-1.389-20.012H340.159z"/>
			</g>
		</g>
		<g>
			<path fill="#263238" d="M302.213,88.229c0,0,2.886,3.415,8.009,3.036c0,0-4.152,3.32-9.524,0.759
				C300.697,92.024,298.115,87.597,302.213,88.229z"/>
			<path fill="#FFC3BD" d="M285.055,126.53c0.671-5.97-0.952-10.18-1.167-17.418l13.441-5.179c1.1,6.851,1.507,15.289,7.369,16.641
				c0,0-4.104,3.155-5.216,6.893c-1.552,5.214-0.514,11.565-3,12.081C292.213,140.435,287.957,127.286,285.055,126.53z"/>
			<path opacity="0.2" enable-background="new    " d="M299.154,114.067c0.401,1.541,1.096,2.989,2.048,4.264
				c-6.673,3.628-11.655,1.501-14.964-2.125C290.431,114.928,294.774,114.208,299.154,114.067z"/>
			<path fill="#FFC3BD" d="M278.437,97.041c1.193,9.203,1.405,14.652,6.408,19.039c7.508,6.599,18.642,1.497,20.23-7.897
				c1.426-8.458-0.761-22.085-10.057-25.073c-6.726-2.16-13.93,1.542-16.09,8.269C278.343,93.205,278.174,95.141,278.437,97.041z"/>
			<path fill="#ED893E" d="M299.929,100.675c0,0,2,4.206,4.028,6.162c-1.241,1.346-3.55,0.95-3.55,0.95L299.929,100.675z"/>
			<path fill="#263238" d="M293.861,99.069c0.032,0.739,0.443,1.327,0.92,1.316c0.477-0.01,0.859-0.635,0.839-1.372
				c-0.019-0.736-0.443-1.327-0.921-1.317C294.224,97.708,293.876,98.366,293.861,99.069z"/>
			<path fill="#263238" d="M302.214,98.809c0.03,0.752,0.444,1.327,0.921,1.317c0.477-0.011,0.859-0.636,0.84-1.372
				c-0.019-0.737-0.444-1.327-0.923-1.303C302.572,97.474,302.195,98.072,302.214,98.809z"/>
			<path fill="#263238" d="M290.446,97.502c0.189,0.027,0.373-0.073,0.45-0.246c0.766-1.209,2.001-2.043,3.408-2.303
				c0.239-0.04,0.399-0.267,0.361-0.506c-0.04-0.233-0.26-0.39-0.493-0.351c-0.005,0-0.011,0.002-0.016,0.003
				c-1.694,0.299-3.172,1.321-4.051,2.799c-0.098,0.215-0.003,0.469,0.212,0.567l0,0C290.355,97.489,290.4,97.502,290.446,97.502z"
				/>
			<path fill="#263238" d="M304.593,94.872c0.158,0.019,0.313-0.047,0.411-0.172c0.143-0.192,0.106-0.464-0.083-0.612
				c-1.097-0.901-2.571-1.198-3.932-0.79c-0.219,0.069-0.34,0.301-0.272,0.52c0.003,0.011,0.007,0.021,0.012,0.032
				c0.078,0.223,0.322,0.341,0.544,0.262c0.003,0,0.005-0.001,0.006-0.002l0,0c1.073-0.28,2.214-0.033,3.073,0.666
				C304.421,94.832,304.504,94.865,304.593,94.872z"/>
			<path fill="#263238" d="M291.666,107.835c0,0,3.254,2.648,7.337,1.417c0,0-0.284,1.138-0.231,3.61
				C298.772,112.862,292.816,115.29,291.666,107.835z"/>
			<path fill="#FFFFFF" d="M297.93,109.485c-3.563,0.536-6.264-1.649-6.264-1.649c0.093,0.604,0.22,1.133,0.359,1.63
				c1.165,0.953,3.006,1.925,5.563,1.695L297.93,109.485z"/>
			<path fill="#C13B37" d="M298.418,112.979c-0.76-1.665-3.841-1.591-5.33-1.45C294.833,113.768,297.478,113.258,298.418,112.979z"
				/>
			<g>
				<path fill="#263238" d="M279.104,105.298c0,0,8.823-1.795,3.415-11.852c0,0,5.606-0.155,7.547-4.157
					c0,0,14.558,3.398,17.878-2.009l-3.969-0.556c0,0,6.686-0.962,4.711-6.465c0,0-2.879,2.952-6.744,2.235
					c0,0,5.274-5.175-0.529-6.978c0,0-2.822,4.269-15.175,3.51c-12.353-0.759-14.999,6.36-14.061,9.677l0.475,1.623
					c0,0-4.562,7.32,1.609,11.862C280.432,106.729,279.104,105.298,279.104,105.298z"/>
				<path fill="#263238" d="M272.652,90.326c0,0-3.987-0.995-3.641-4.5h-0.07c-0.376,1.344-1.339,6.186,4.471,5.709L272.652,90.326z
					"/>
			</g>
			<path fill="#FFC3BD" d="M275.191,105.318c0.745,2.208,2.343,4.025,4.437,5.046c2.792,1.341,4.743-1.017,4.437-3.923
				c-0.268-2.618-2.042-6.472-5.073-6.591C275.96,99.73,274.313,102.618,275.191,105.318z"/>
		</g>
		<path fill="#407BFF" d="M284.125,123.954c0,0,8.027,5.266,12.582,14.374c0,0,0.672-16.65,5.743-21.489h5.071v6.404l-5.071,0.427
			l5.071,3.335c0,0-8.965,11.038-9.961,16.162c0,0-6.799-6.547-11.085-8.254l0.98-3.843l-3.984,1.993l-2.139-5.415L284.125,123.954z
			"/>
		<g>
			<polygon fill="#407BFF" points="353.49,207.259 311.956,194.076 306.557,149.573 348.09,162.756 			"/>
			<polygon fill="#407BFF" points="353.49,207.259 390.666,184.525 385.266,140.022 348.09,162.756 			"/>
			<polygon opacity="0.2" points="353.49,207.259 390.666,184.525 385.266,140.022 348.09,162.756 			"/>
			<polygon fill="#407BFF" points="385.266,140.022 348.09,162.756 306.557,149.573 343.732,126.84 			"/>
			<polygon opacity="0.5" points="385.266,140.022 348.09,162.756 306.557,149.573 343.732,126.84 			"/>
			<g>
				<path fill="#407BFF" d="M385.266,140.022c0,0-41.45-13.156-41.506-13.173l4.354,35.892L385.266,140.022z"/>
				<path opacity="0.3" d="M385.266,140.022c0,0-41.45-13.156-41.506-13.173l4.354,35.892L385.266,140.022z"/>
			</g>
			<g>
				<polygon fill="#407BFF" points="348.09,162.756 335.988,182.446 294.454,169.264 306.557,149.573 				"/>
				<polygon opacity="0.3" fill="#FFFFFF" points="348.09,162.756 335.988,182.446 294.454,169.264 306.557,149.573 				"/>
			</g>
			<g>
				<polygon fill="#407BFF" points="348.09,162.756 364.55,178.981 401.726,156.248 385.266,140.022 				"/>
				<polygon opacity="0.3" fill="#FFFFFF" points="348.09,162.756 364.55,178.981 401.726,156.248 385.266,140.022 				"/>
			</g>
			<g>
				<path fill="#407BFF" d="M397.231,142.134c-4.076-1.293-41.152-13.062-41.152-13.062l-12.347-2.232l41.533,13.183l11.966,2.164
					V142.134z"/>
				<path opacity="0.2" fill="#FFFFFF" d="M397.231,142.134c-4.076-1.293-41.152-13.062-41.152-13.062l-12.347-2.232l41.533,13.183
					l11.966,2.164V142.134z"/>
			</g>
			<g>
				<path fill="#407BFF" d="M332.277,131.961c0,0-35.787,21.883-36.706,22.445v0.077l10.985-4.91l37.176-22.733L332.277,131.961z"/>
				<path opacity="0.2" fill="#FFFFFF" d="M332.277,131.961c0,0-35.787,21.883-36.706,22.445v0.077l10.985-4.91l37.176-22.733
					L332.277,131.961z"/>
			</g>
		</g>
		<g>
			<g>
				<path fill="#407BFF" d="M267.617,166.639c0,0-8.836-14.072,0-23.766s17.609,17.237,17.609,17.237S277.45,158.07,267.617,166.639
					z"/>
				<path opacity="0.7" fill="#FFFFFF" d="M267.617,166.639c0,0-8.836-14.072,0-23.766s17.609,17.237,17.609,17.237
					S277.45,158.07,267.617,166.639z"/>
			</g>
			<path fill="#FFC3BD" d="M283.519,161.524c0,0,6.452,12.903,9.298,18.974c0,0,9.094,3.708,28.456,6.503
				c0,0,9.837-5.721,15.186-3.466c5.898,2.487,7.487,5.151,4.744,8.348c-2.74,3.195-8.159,2.088-8.159,2.088
				s-4.178,1.302-9.867,0.379c0,0-17.533,0.528-33.585-3.036c-9.827-2.182-18.405-25.303-18.405-25.303L283.519,161.524z"/>
			<path fill="#407BFF" d="M266.289,166.639c0,0,2.952-4.546,8.787-6.539c5.834-1.992,10.592-1.352,10.592-1.352l1.076,4.757
				c0,0-7.573-1.326-17.893,6.549L266.289,166.639z"/>
		</g>
		
			<text transform="matrix(0.8949 -0.4464 0.4464 0.8949 357.3848 193.752)" fill="#FFFFFF" font-family="'MyriadPro-Bold'" font-size="8.0882">Docusoft</text>
	</g>
	<g>
		<g>
			<path fill="#407BFF" d="M426.994,143.456l-39.876-18.577c-0.688-0.321-0.986-1.139-0.665-1.828l24.84-53.323
				c0.321-0.689,1.138-0.987,1.827-0.666l24.563,11.442l8.781,24.41l-17.644,37.874
				C428.501,143.478,427.682,143.776,426.994,143.456z"/>
			<g>
				<polygon opacity="0.1" points="446.465,104.916 437.684,80.505 436.381,79.899 426.898,100.253 444.76,108.575 				"/>
				<polygon fill="none" points="446.528,104.779 429.97,97.065 437.684,80.506 				"/>
				<polygon opacity="0.2" points="446.528,104.779 429.97,97.065 437.684,80.506 				"/>
			</g>
		</g>
		<g>
			
				<rect x="403.562" y="96.438" transform="matrix(0.9065 0.4223 -0.4223 0.9065 84.348 -167.303)" fill="#407BFF" width="32.535" height="20.62"/>
			
				<rect x="403.562" y="96.438" transform="matrix(0.9065 0.4223 -0.4223 0.9065 84.348 -167.303)" opacity="0.7" fill="#FFFFFF" width="32.535" height="20.62"/>
		</g>
		<g>
			<polygon fill="#407BFF" points="411.99,106.656 402.578,110.086 415.419,116.068 			"/>
			<polygon opacity="0.2" fill="#FFFFFF" points="411.99,106.656 402.578,110.086 415.419,116.068 			"/>
		</g>
		<g>
			<polygon fill="#407BFF" points="412.532,114.723 430.222,122.964 431.015,121.261 426.746,109.544 			"/>
			<polygon opacity="0.4" fill="#FFFFFF" points="412.532,114.723 430.222,122.964 431.015,121.261 426.746,109.544 			"/>
		</g>
		<circle fill="#FFFFFF" cx="418.144" cy="102.678" r="3.476"/>
		<g>
			<path fill="#FFFFFF" d="M398.123,122.715l2.195-0.19c0.048,0.614,0.212,1.008,0.885,1.322c0.872,0.406,1.365,0.031,1.615-0.505
				l2.755-5.917l1.993,0.929l-2.756,5.917c-0.893,1.917-2.731,2.35-4.525,1.514C398.903,125.141,398.18,124.091,398.123,122.715z"/>
			<path fill="#FFFFFF" d="M413.962,124.971c-0.772,1.657-2.725,2.369-4.443,1.567l-1.308-0.608l-1.277,2.74l-1.992-0.928
				l4.061-8.718l3.3,1.537C414.022,121.361,414.733,123.314,413.962,124.971z M411.97,124.042c0.296-0.635,0.073-1.33-0.537-1.614
				l-1.308-0.609l-1.045,2.242l1.308,0.609C410.998,124.956,411.673,124.678,411.97,124.042z"/>
			<path fill="#FFFFFF" d="M422.777,131.048c-1.241,2.666-3.852,3.42-6.292,2.283c-2.74-1.276-3.768-4.211-2.602-6.715
				c1.179-2.528,4.123-3.611,6.689-2.417c1.668,0.778,2.693,2.255,2.882,3.768l-2.146,0.183c-0.094-0.742-0.67-1.555-1.653-2.014
				c-1.47-0.685-3.071-0.111-3.784,1.421c-0.691,1.482-0.15,3.053,1.544,3.841c1.159,0.54,2.156,0.383,2.856-0.306l-2.329-1.086
				l0.813-1.744l4.371,2.038L422.777,131.048z"/>
		</g>
	</g>
	<g>
		<g>
			<path fill="#407BFF" d="M361.018,148.401l-26.986,4.273c-0.466,0.074-0.904-0.244-0.978-0.71l-5.716-36.087
				c-0.073-0.466,0.245-0.903,0.71-0.978l16.624-2.633l12.997,9.524l4.059,25.632C361.801,147.889,361.483,148.326,361.018,148.401z
				"/>
			<g>
				<polygon opacity="0.1" points="357.668,121.791 344.671,112.267 343.789,112.407 345.972,126.182 358.06,124.268 				"/>
				<polygon fill="none" points="357.653,121.698 346.446,123.474 344.671,112.267 				"/>
				<polygon opacity="0.2" points="357.653,121.698 346.446,123.474 344.671,112.267 				"/>
			</g>
		</g>
		<g>
			<path fill="#FFFFFF" d="M342.665,132.91l-4.963,0.786l-0.563,2.669l-0.792,0.125l2.278-10.506l0.792-0.125l5.399,9.29
				l-0.792,0.126L342.665,132.91z M342.284,132.246l-3.117-5.406l-1.295,6.104L342.284,132.246z"/>
			<path fill="#FFFFFF" d="M352.695,126.655l1.065,6.729c0.336,2.121-1.043,3.572-2.994,3.88c-1.654,0.262-2.933-0.217-3.605-1.168
				l0.566-0.453c0.486,0.692,1.376,1.188,2.932,0.942c1.768-0.279,2.65-1.477,2.395-3.089l-0.206-1.301
				c-0.407,1.181-1.384,2.06-2.755,2.277c-2.022,0.32-3.916-1.018-4.247-3.11c-0.331-2.093,1.056-3.951,3.078-4.271
				c1.372-0.217,2.573,0.317,3.324,1.314l-0.26-1.64L352.695,126.655z M352.547,130.301c-0.266-1.683-1.792-2.804-3.474-2.538
				c-1.683,0.268-2.788,1.804-2.521,3.487c0.267,1.682,1.792,2.803,3.476,2.537C351.709,133.521,352.813,131.983,352.547,130.301z"
				/>
		</g>
		<g>
			<path fill="#FFFFFF" d="M339.229,145.726c-0.275-1.736,0.888-3.286,2.582-3.555c1.694-0.268,3.279,0.846,3.553,2.583
				c0.275,1.736-0.888,3.286-2.582,3.554C341.088,148.576,339.504,147.462,339.229,145.726z M344.017,144.967
				c-0.167-1.053-1.036-1.633-1.997-1.48s-1.609,0.972-1.442,2.025c0.167,1.054,1.037,1.633,1.998,1.481
				C343.536,146.841,344.184,146.021,344.017,144.967z"/>
			<path fill="#FFFFFF" d="M349.49,142.407l-1.517,0.241l0.729,4.602l-1.349,0.214l-0.729-4.603l-1.517,0.24l-0.206-1.297
				l4.383-0.694L349.49,142.407z"/>
			<path fill="#FFFFFF" d="M351.431,142.099l0.18,1.138l2.192-0.347l0.206,1.298l-2.191,0.347l0.343,2.166l-1.349,0.214l-0.935-5.9
				l3.582-0.568l0.206,1.298L351.431,142.099z"/>
		</g>
	</g>
	<g>
		<g>
			<path fill="#407BFF" d="M386.777,109.043l-35.716-1.872c-0.617-0.032-1.091-0.559-1.059-1.175l2.503-47.761
				c0.033-0.617,0.559-1.091,1.176-1.059l22.001,1.153l14.048,15.731l-1.778,33.924
				C387.919,108.602,387.394,109.076,386.777,109.043z"/>
			<g>
				<polygon opacity="0.1" points="389.73,74.061 375.682,58.33 374.515,58.268 373.559,76.5 389.558,77.338 				"/>
				<polygon fill="none" points="389.736,73.938 374.905,73.162 375.682,58.33 				"/>
				<polygon opacity="0.2" points="389.736,73.938 374.905,73.162 375.682,58.33 				"/>
			</g>
		</g>
		<g>
			<g>
				<path fill="#FFFFFF" d="M365.171,102.173l-0.09,1.718l-4.908-0.257l0.41-7.809l4.852,0.254l-0.089,1.718l-3.069-0.161
					l-0.067,1.293l2.789,0.146l-0.089,1.696l-2.789-0.146l-0.072,1.383L365.171,102.173z"/>
				<path fill="#FFFFFF" d="M372.046,99.11c-0.078,1.484-1.333,2.616-2.874,2.535l-1.171-0.062l-0.129,2.454l-1.785-0.093
					l0.409-7.809l2.956,0.155C370.993,96.37,372.124,97.626,372.046,99.11z M370.262,99.016c0.03-0.569-0.35-1.025-0.896-1.054
					l-1.171-0.061l-0.106,2.008l1.172,0.063C369.807,100,370.231,99.585,370.262,99.016z"/>
				<path fill="#FFFFFF" d="M372.153,102.482l1.586-0.811c0.245,0.661,0.702,1.121,1.583,1.167c0.848,0.045,1.078-0.279,1.093-0.579
					c0.024-0.48-0.412-0.693-1.566-1.078c-1.144-0.384-2.251-1.002-2.173-2.497c0.079-1.506,1.396-2.31,2.746-2.239
					c1.283,0.067,2.255,0.733,2.763,1.912l-1.551,0.802c-0.239-0.571-0.589-0.937-1.302-0.974c-0.559-0.029-0.853,0.235-0.868,0.547
					c-0.019,0.357,0.157,0.613,1.354,1.044c1.164,0.419,2.47,0.901,2.384,2.552c-0.08,1.506-1.331,2.335-3.026,2.247
					C373.536,104.49,372.528,103.654,372.153,102.482z"/>
			</g>
			<g>
				<g>
					<path fill="#FFFFFF" d="M373.958,91.813l-0.374-0.415c4.092-3.684,4.423-10.01,0.739-14.102
						c-3.684-4.092-10.011-4.423-14.104-0.74l-0.374-0.415c4.32-3.891,11.001-3.541,14.892,0.781
						c1.884,2.092,2.842,4.794,2.694,7.607C377.286,87.342,376.052,89.93,373.958,91.813z"/>
				</g>
				<g>
					
						<rect x="365.265" y="76.83" transform="matrix(0.6691 0.7432 -0.7432 0.6691 181.2419 -252.8282)" fill="#FFFFFF" width="18.532" height="0.558"/>
				</g>
				<g>
					
						<rect x="358.78" y="75.097" transform="matrix(0.9986 0.0524 -0.0524 0.9986 4.4968 -18.7664)" fill="#263238" width="2.506" height="2.505"/>
					
						<rect x="372.519" y="90.354" transform="matrix(0.9986 0.0526 -0.0526 0.9986 5.3359 -19.5335)" fill="#263238" width="2.506" height="2.505"/>
					
						<rect x="373.278" y="75.857" transform="matrix(0.9986 0.0522 -0.0522 0.9986 4.5388 -19.4571)" fill="#263238" width="2.505" height="2.506"/>
					
						<rect x="367.078" y="68.97" transform="matrix(0.9986 0.0526 -0.0526 0.9986 4.2036 -19.2769)" fill="#263238" width="2.506" height="2.505"/>
					
						<rect x="379.479" y="82.742" transform="matrix(0.9986 0.0522 -0.0522 0.9986 4.9069 -19.7715)" fill="#263238" width="2.505" height="2.506"/>
				</g>
			</g>
		</g>
	</g>
	<g>
		<polygon fill="#407BFF" points="330.631,71.055 333.94,74.333 338.445,73.148 339.672,77.641 344.165,78.869 342.981,83.374 
			346.258,86.683 342.981,89.992 344.165,94.497 339.672,95.724 338.445,100.216 333.94,99.033 330.631,102.311 327.321,99.033 
			322.817,100.216 321.59,95.724 317.097,94.497 318.281,89.992 315.004,86.683 318.281,83.374 317.097,78.869 321.59,77.641 
			322.817,73.148 327.321,74.333 		"/>
		<text transform="matrix(1 0 0 1 319.8472 90.5801)" fill="#FFFFFF" font-family="'Arial-BoldMT'" font-size="9.7058">DOC</text>
	</g>
	<g>
		<g>
			<path fill="#407BFF" d="M434.855,154.816L434.855,154.816c0.827,1.417,2.34,2.291,3.98,2.298l0,0
				c2.542,0.012,4.6,2.071,4.612,4.613l0,0c0.008,1.64,0.882,3.153,2.298,3.98l0,0c2.196,1.282,2.949,4.093,1.688,6.301l0,0
				c-0.813,1.424-0.813,3.172,0,4.596l0,0c1.261,2.208,0.508,5.02-1.688,6.301l0,0c-1.417,0.827-2.29,2.34-2.298,3.98l0,0
				c-0.013,2.542-2.07,4.6-4.612,4.612l0,0c-1.64,0.009-3.153,0.883-3.98,2.299l0,0c-1.283,2.195-4.094,2.949-6.302,1.688l0,0
				c-1.424-0.813-3.172-0.813-4.596,0l0,0c-2.207,1.261-5.019,0.507-6.302-1.688l0,0c-0.827-1.416-2.34-2.29-3.98-2.299l0,0
				c-2.542-0.012-4.6-2.069-4.611-4.612l0,0c-0.01-1.64-0.882-3.153-2.299-3.98l0,0c-2.195-1.282-2.949-4.093-1.688-6.301l0,0
				c0.813-1.424,0.813-3.172,0-4.596l0,0c-1.261-2.208-0.507-5.019,1.688-6.301l0,0c1.416-0.827,2.289-2.34,2.299-3.98l0,0
				c0.012-2.542,2.069-4.601,4.611-4.613l0,0c1.641-0.008,3.153-0.881,3.98-2.298l0,0c1.283-2.195,4.095-2.949,6.302-1.688l0,0
				c1.424,0.813,3.172,0.813,4.596,0l0,0C430.762,151.867,433.572,152.621,434.855,154.816z"/>
			<path opacity="0.8" fill="#FFFFFF" d="M434.855,154.816L434.855,154.816c0.827,1.417,2.34,2.291,3.98,2.298l0,0
				c2.542,0.012,4.6,2.071,4.612,4.613l0,0c0.008,1.64,0.882,3.153,2.298,3.98l0,0c2.196,1.282,2.949,4.093,1.688,6.301l0,0
				c-0.813,1.424-0.813,3.172,0,4.596l0,0c1.261,2.208,0.508,5.02-1.688,6.301l0,0c-1.417,0.827-2.29,2.34-2.298,3.98l0,0
				c-0.013,2.542-2.07,4.6-4.612,4.612l0,0c-1.64,0.009-3.153,0.883-3.98,2.299l0,0c-1.283,2.195-4.094,2.949-6.302,1.688l0,0
				c-1.424-0.813-3.172-0.813-4.596,0l0,0c-2.207,1.261-5.019,0.507-6.302-1.688l0,0c-0.827-1.416-2.34-2.29-3.98-2.299l0,0
				c-2.542-0.012-4.6-2.069-4.611-4.612l0,0c-0.01-1.64-0.882-3.153-2.299-3.98l0,0c-2.195-1.282-2.949-4.093-1.688-6.301l0,0
				c0.813-1.424,0.813-3.172,0-4.596l0,0c-1.261-2.208-0.507-5.019,1.688-6.301l0,0c1.416-0.827,2.289-2.34,2.299-3.98l0,0
				c0.012-2.542,2.069-4.601,4.611-4.613l0,0c1.641-0.008,3.153-0.881,3.98-2.298l0,0c1.283-2.195,4.095-2.949,6.302-1.688l0,0
				c1.424,0.813,3.172,0.813,4.596,0l0,0C430.762,151.867,433.572,152.621,434.855,154.816z"/>
		</g>
		<text transform="matrix(1 0 0 1 413.5479 178.981)" fill="#3F7AFF" font-family="'Arial-BoldMT'" font-size="12.7083">PDF</text>
	</g>
</g>
<g id="Desk">
	<g>
		<g>
			<rect x="295.72" y="261.023" fill="#407BFF" width="75.672" height="11.414"/>
			<rect x="295.72" y="261.023" opacity="0.6" fill="#FFFFFF" width="75.672" height="11.414"/>
		</g>
		<g>
			<g>
				<path fill="#407BFF" d="M162.597,416.817h-6.023c-0.747,0-1.353-0.605-1.353-1.354V272.438h8.73v143.026
					C163.95,416.212,163.345,416.817,162.597,416.817z"/>
			</g>
			<g opacity="0.5">
				<path fill="#FFFFFF" d="M162.597,416.817h-6.023c-0.747,0-1.353-0.605-1.353-1.354V272.438h8.73v143.026
					C163.95,416.212,163.345,416.817,162.597,416.817z"/>
			</g>
		</g>
		<g>
			<path fill="#407BFF" d="M364.992,416.817h-6.024c-0.747,0-1.353-0.605-1.353-1.354V272.438h8.729v143.026
				C366.345,416.212,365.739,416.817,364.992,416.817z"/>
			<path opacity="0.5" fill="#FFFFFF" d="M364.992,416.817h-6.024c-0.747,0-1.353-0.605-1.353-1.354V272.438h8.729v143.026
				C366.345,416.212,365.739,416.817,364.992,416.817z"/>
		</g>
		<g>
			<rect x="96.085" y="261.023" fill="#407BFF" width="221.219" height="11.414"/>
			<rect x="96.085" y="261.023" opacity="0.7" fill="#FFFFFF" width="221.219" height="11.414"/>
		</g>
		<g>
			<g>
				<path fill="#407BFF" d="M108.509,416.817h-6.023c-0.747,0-1.354-0.605-1.354-1.354V272.438h8.73v143.026
					C109.862,416.212,109.256,416.817,108.509,416.817z"/>
			</g>
			<g opacity="0.6">
				<path fill="#FFFFFF" d="M108.509,416.817h-6.023c-0.747,0-1.354-0.605-1.354-1.354V272.438h8.73v143.026
					C109.862,416.212,109.256,416.817,108.509,416.817z"/>
			</g>
		</g>
		<g>
			<path fill="#407BFF" d="M310.903,416.817h-6.023c-0.746,0-1.353-0.605-1.353-1.354V272.438h8.73v143.026
				C312.257,416.212,311.651,416.817,310.903,416.817z"/>
			<path opacity="0.6" fill="#FFFFFF" d="M310.903,416.817h-6.023c-0.746,0-1.353-0.605-1.353-1.354V272.438h8.73v143.026
				C312.257,416.212,311.651,416.817,310.903,416.817z"/>
		</g>
		<g>
			<g>
				<g>
					<path fill="#407BFF" d="M184.019,258.352h-2.825c-0.298,0-0.539-0.241-0.539-0.539v-2.988c0-0.298,0.241-0.539,0.539-0.539
						h2.029c0.244,0,0.458,0.165,0.521,0.4l0.797,2.987C184.631,258.016,184.373,258.352,184.019,258.352z"/>
					<path fill="#407BFF" d="M187.922,258.352h-2.824c-0.298,0-0.54-0.241-0.54-0.539v-2.988c0-0.298,0.242-0.539,0.54-0.539h2.028
						c0.245,0,0.458,0.165,0.521,0.4l0.797,2.987C188.534,258.016,188.276,258.352,187.922,258.352z"/>
					<path fill="#407BFF" d="M191.825,258.352h-2.824c-0.298,0-0.54-0.241-0.54-0.539v-2.988c0-0.298,0.242-0.539,0.54-0.539h2.028
						c0.245,0,0.458,0.165,0.521,0.4l0.797,2.987C192.438,258.016,192.18,258.352,191.825,258.352z"/>
					<path fill="#407BFF" d="M195.729,258.352h-2.825c-0.298,0-0.539-0.241-0.539-0.539v-2.988c0-0.298,0.241-0.539,0.539-0.539
						h2.028c0.245,0,0.458,0.165,0.521,0.4l0.796,2.987C196.342,258.016,196.084,258.352,195.729,258.352z"/>
					<path fill="#407BFF" d="M199.633,258.352h-2.825c-0.298,0-0.539-0.241-0.539-0.539v-2.988c0-0.298,0.24-0.539,0.539-0.539
						h2.028c0.245,0,0.458,0.165,0.522,0.4l0.796,2.987C200.245,258.016,199.987,258.352,199.633,258.352z"/>
					<path fill="#407BFF" d="M203.537,258.352h-2.825c-0.297,0-0.539-0.241-0.539-0.539v-2.988c0-0.298,0.242-0.539,0.539-0.539
						h2.028c0.244,0,0.458,0.165,0.521,0.4l0.796,2.987C204.149,258.016,203.891,258.352,203.537,258.352z"/>
					<path fill="#407BFF" d="M207.44,258.352h-2.825c-0.297,0-0.539-0.241-0.539-0.539v-2.988c0-0.298,0.242-0.539,0.539-0.539
						h2.028c0.244,0,0.458,0.165,0.521,0.4l0.796,2.987C208.052,258.016,207.795,258.352,207.44,258.352z"/>
					<path fill="#407BFF" d="M211.344,258.352h-2.825c-0.297,0-0.538-0.241-0.538-0.539v-2.988c0-0.298,0.241-0.539,0.538-0.539
						h2.028c0.244,0,0.458,0.165,0.521,0.4l0.797,2.987C211.956,258.016,211.699,258.352,211.344,258.352z"/>
					<path fill="#407BFF" d="M215.247,258.352h-2.824c-0.297,0-0.54-0.241-0.54-0.539v-2.988c0-0.298,0.242-0.539,0.54-0.539h2.028
						c0.244,0,0.458,0.165,0.521,0.4l0.797,2.987C215.86,258.016,215.602,258.352,215.247,258.352z"/>
					<path fill="#407BFF" d="M219.151,258.352h-2.825c-0.298,0-0.54-0.241-0.54-0.539v-2.988c0-0.298,0.242-0.539,0.54-0.539h2.028
						c0.244,0,0.459,0.165,0.521,0.4l0.797,2.987C219.764,258.016,219.505,258.352,219.151,258.352z"/>
					<path fill="#407BFF" d="M223.055,258.352h-2.825c-0.298,0-0.54-0.241-0.54-0.539v-2.988c0-0.298,0.241-0.539,0.54-0.539h2.028
						c0.244,0,0.458,0.165,0.521,0.4l0.797,2.987C223.667,258.016,223.409,258.352,223.055,258.352z"/>
					<path fill="#407BFF" d="M226.958,258.352h-2.824c-0.298,0-0.54-0.241-0.54-0.539v-2.988c0-0.298,0.242-0.539,0.54-0.539h2.028
						c0.245,0,0.458,0.165,0.521,0.4l0.797,2.987C227.571,258.016,227.313,258.352,226.958,258.352z"/>
					<path fill="#407BFF" d="M230.862,258.352h-2.825c-0.298,0-0.54-0.241-0.54-0.539v-2.988c0-0.298,0.242-0.539,0.54-0.539h2.029
						c0.244,0,0.458,0.165,0.52,0.4l0.797,2.987C231.475,258.016,231.217,258.352,230.862,258.352z"/>
					<path fill="#407BFF" d="M234.766,258.352h-2.824c-0.299,0-0.54-0.241-0.54-0.539v-2.988c0-0.298,0.241-0.539,0.54-0.539h2.027
						c0.245,0,0.458,0.165,0.521,0.4l0.796,2.987C235.378,258.016,235.12,258.352,234.766,258.352z"/>
					<path fill="#407BFF" d="M238.669,258.352h-2.824c-0.298,0-0.54-0.241-0.54-0.539v-2.988c0-0.298,0.242-0.539,0.54-0.539h2.028
						c0.245,0,0.458,0.165,0.521,0.4l0.796,2.987C239.281,258.016,239.023,258.352,238.669,258.352z"/>
				</g>
				<g opacity="0.6">
					<path fill="#FFFFFF" d="M184.019,258.352h-2.825c-0.298,0-0.539-0.241-0.539-0.539v-2.988c0-0.298,0.241-0.539,0.539-0.539
						h2.029c0.244,0,0.458,0.165,0.521,0.4l0.797,2.987C184.631,258.016,184.373,258.352,184.019,258.352z"/>
					<path fill="#FFFFFF" d="M187.922,258.352h-2.824c-0.298,0-0.54-0.241-0.54-0.539v-2.988c0-0.298,0.242-0.539,0.54-0.539h2.028
						c0.245,0,0.458,0.165,0.521,0.4l0.797,2.987C188.534,258.016,188.276,258.352,187.922,258.352z"/>
					<path fill="#FFFFFF" d="M191.825,258.352h-2.824c-0.298,0-0.54-0.241-0.54-0.539v-2.988c0-0.298,0.242-0.539,0.54-0.539h2.028
						c0.245,0,0.458,0.165,0.521,0.4l0.797,2.987C192.438,258.016,192.18,258.352,191.825,258.352z"/>
					<path fill="#FFFFFF" d="M195.729,258.352h-2.825c-0.298,0-0.539-0.241-0.539-0.539v-2.988c0-0.298,0.241-0.539,0.539-0.539
						h2.028c0.245,0,0.458,0.165,0.521,0.4l0.796,2.987C196.342,258.016,196.084,258.352,195.729,258.352z"/>
					<path fill="#FFFFFF" d="M199.633,258.352h-2.825c-0.298,0-0.539-0.241-0.539-0.539v-2.988c0-0.298,0.24-0.539,0.539-0.539
						h2.028c0.245,0,0.458,0.165,0.522,0.4l0.796,2.987C200.245,258.016,199.987,258.352,199.633,258.352z"/>
					<path fill="#FFFFFF" d="M203.537,258.352h-2.825c-0.297,0-0.539-0.241-0.539-0.539v-2.988c0-0.298,0.242-0.539,0.539-0.539
						h2.028c0.244,0,0.458,0.165,0.521,0.4l0.796,2.987C204.149,258.016,203.891,258.352,203.537,258.352z"/>
					<path fill="#FFFFFF" d="M207.44,258.352h-2.825c-0.297,0-0.539-0.241-0.539-0.539v-2.988c0-0.298,0.242-0.539,0.539-0.539
						h2.028c0.244,0,0.458,0.165,0.521,0.4l0.796,2.987C208.052,258.016,207.795,258.352,207.44,258.352z"/>
					<path fill="#FFFFFF" d="M211.344,258.352h-2.825c-0.297,0-0.538-0.241-0.538-0.539v-2.988c0-0.298,0.241-0.539,0.538-0.539
						h2.028c0.244,0,0.458,0.165,0.521,0.4l0.797,2.987C211.956,258.016,211.699,258.352,211.344,258.352z"/>
					<path fill="#FFFFFF" d="M215.247,258.352h-2.824c-0.297,0-0.54-0.241-0.54-0.539v-2.988c0-0.298,0.242-0.539,0.54-0.539h2.028
						c0.244,0,0.458,0.165,0.521,0.4l0.797,2.987C215.86,258.016,215.602,258.352,215.247,258.352z"/>
					<path fill="#FFFFFF" d="M219.151,258.352h-2.825c-0.298,0-0.54-0.241-0.54-0.539v-2.988c0-0.298,0.242-0.539,0.54-0.539h2.028
						c0.244,0,0.459,0.165,0.521,0.4l0.797,2.987C219.764,258.016,219.505,258.352,219.151,258.352z"/>
					<path fill="#FFFFFF" d="M223.055,258.352h-2.825c-0.298,0-0.54-0.241-0.54-0.539v-2.988c0-0.298,0.241-0.539,0.54-0.539h2.028
						c0.244,0,0.458,0.165,0.521,0.4l0.797,2.987C223.667,258.016,223.409,258.352,223.055,258.352z"/>
					<path fill="#FFFFFF" d="M226.958,258.352h-2.824c-0.298,0-0.54-0.241-0.54-0.539v-2.988c0-0.298,0.242-0.539,0.54-0.539h2.028
						c0.245,0,0.458,0.165,0.521,0.4l0.797,2.987C227.571,258.016,227.313,258.352,226.958,258.352z"/>
					<path fill="#FFFFFF" d="M230.862,258.352h-2.825c-0.298,0-0.54-0.241-0.54-0.539v-2.988c0-0.298,0.242-0.539,0.54-0.539h2.029
						c0.244,0,0.458,0.165,0.52,0.4l0.797,2.987C231.475,258.016,231.217,258.352,230.862,258.352z"/>
					<path fill="#FFFFFF" d="M234.766,258.352h-2.824c-0.299,0-0.54-0.241-0.54-0.539v-2.988c0-0.298,0.241-0.539,0.54-0.539h2.027
						c0.245,0,0.458,0.165,0.521,0.4l0.796,2.987C235.378,258.016,235.12,258.352,234.766,258.352z"/>
					<path fill="#FFFFFF" d="M238.669,258.352h-2.824c-0.298,0-0.54-0.241-0.54-0.539v-2.988c0-0.298,0.242-0.539,0.54-0.539h2.028
						c0.245,0,0.458,0.165,0.521,0.4l0.796,2.987C239.281,258.016,239.023,258.352,238.669,258.352z"/>
				</g>
			</g>
			<rect x="178.353" y="256.318" fill="#407BFF" width="63.158" height="4.705"/>
			<rect x="178.353" y="256.318" opacity="0.5" fill="#FFFFFF" width="63.158" height="4.705"/>
		</g>
		<g>
			<g>
				<g>
					<path fill="#407BFF" d="M226.945,153.765h-7.557l5.582,79.832h7.558c1.252,0,2.196-1.015,2.109-2.268l-5.265-75.296
						C229.283,154.78,228.197,153.765,226.945,153.765z"/>
					<path opacity="0.7" fill="#FFFFFF" d="M226.945,153.765h-7.557l5.582,79.832h7.558c1.252,0,2.196-1.015,2.109-2.268
						l-5.265-75.296C229.283,154.78,228.197,153.765,226.945,153.765z"/>
				</g>
				<g>
					<g>
						<path fill="#407BFF" d="M228.189,233.597H114.921c-1.253,0-2.339-1.015-2.426-2.268l-5.266-75.296
							c-0.088-1.252,0.856-2.268,2.109-2.268h113.27c1.251,0,2.338,1.016,2.426,2.268l5.265,75.296
							C230.387,232.582,229.442,233.597,228.189,233.597z"/>
						<path opacity="0.5" fill="#FFFFFF" d="M228.189,233.597H114.921c-1.253,0-2.339-1.015-2.426-2.268l-5.266-75.296
							c-0.088-1.252,0.856-2.268,2.109-2.268h113.27c1.251,0,2.338,1.016,2.426,2.268l5.265,75.296
							C230.387,232.582,229.442,233.597,228.189,233.597z"/>
					</g>
					<g>
						<path fill="#407BFF" d="M132.028,230.206L132.028,230.206c-0.398,0-0.746-0.326-0.774-0.723l-0.189-2.711
							c-0.028-0.398,0.274-0.724,0.672-0.724l0,0c0.397,0,0.746,0.325,0.773,0.724l0.19,2.711
							C132.728,229.88,132.426,230.206,132.028,230.206z"/>
						<path fill="#407BFF" d="M135.371,230.206L135.371,230.206c-0.397,0-0.746-0.326-0.773-0.723l-0.189-2.711
							c-0.028-0.398,0.275-0.724,0.673-0.724l0,0c0.396,0,0.745,0.325,0.773,0.724l0.19,2.711
							C136.071,229.88,135.769,230.206,135.371,230.206z"/>
						<path fill="#407BFF" d="M138.715,230.206L138.715,230.206c-0.398,0-0.746-0.326-0.774-0.723l-0.189-2.711
							c-0.028-0.398,0.274-0.724,0.672-0.724l0,0c0.397,0,0.746,0.325,0.773,0.724l0.19,2.711
							C139.414,229.88,139.112,230.206,138.715,230.206z"/>
						<path fill="#FFFFFF" d="M127.771,228.128c0.08,1.146-0.785,2.078-1.933,2.078c-1.148,0-2.144-0.932-2.224-2.078
							c-0.081-1.148,0.785-2.079,1.932-2.079C126.696,226.049,127.691,226.979,127.771,228.128z"/>
						<path fill="#407BFF" d="M127.163,228.128c0.057,0.812-0.554,1.469-1.366,1.469s-1.516-0.657-1.573-1.469
							c-0.057-0.813,0.555-1.471,1.366-1.471C126.402,226.657,127.106,227.315,127.163,228.128z"/>
					</g>
					<path opacity="0.1" d="M163.94,215.93c-1.583,0-2.799,1.243-2.765,2.824l0.324,14.843h27.637l-1.752-14.843
						c-0.188-1.581-1.578-2.824-3.16-2.824H163.94z M175.23,232.351c-3.144,0-5.87-2.549-6.09-5.693
						c-0.22-3.145,2.15-5.691,5.294-5.691c3.145,0,5.871,2.547,6.09,5.691C180.744,229.802,178.374,232.351,175.23,232.351z"/>
				</g>
			</g>
			<g>
				<path fill="#407BFF" d="M183.462,218.754c-0.076-1.581-1.38-2.824-2.963-2.824h-20.283c-1.583,0-2.887,1.243-2.962,2.824
					l-2.033,42.27h30.274L183.462,218.754z M170.357,232.351c-3.144,0-5.692-2.549-5.692-5.693s2.548-5.691,5.692-5.691
					c3.144,0,5.692,2.547,5.692,5.691S173.501,232.351,170.357,232.351z"/>
				<path opacity="0.3" fill="#FFFFFF" d="M183.462,218.754c-0.076-1.581-1.38-2.824-2.963-2.824h-20.283
					c-1.583,0-2.887,1.243-2.962,2.824l-2.033,42.27h30.274L183.462,218.754z M170.357,232.351c-3.144,0-5.692-2.549-5.692-5.693
					s2.548-5.691,5.692-5.691c3.144,0,5.692,2.547,5.692,5.691S173.501,232.351,170.357,232.351z"/>
			</g>
		</g>
		<g>
			<path fill="#407BFF" d="M144.292,261.023h-20.071v-1.785c0-3.501,2.938-6.285,6.435-6.096l7.861,0.425
				c3.238,0.175,5.775,2.852,5.775,6.096V261.023z"/>
			<path opacity="0.8" fill="#FFFFFF" d="M144.292,261.023h-20.071v-1.785c0-3.501,2.938-6.285,6.435-6.096l7.861,0.425
				c3.238,0.175,5.775,2.852,5.775,6.096V261.023z"/>
		</g>
	</g>
</g>
</svg>
